HIERARCHY
ROOT root
{
	OFFSET 0.000000 0.000000 0.000000
	CHANNELS 6 Xposition Yposition Zposition Zrotation Yrotation Xrotation
	JOINT lhip
	{
		OFFSET 0.058581 -0.082280 -0.017664
		CHANNELS 3 Zrotation Yrotation Xrotation
		JOINT lknee
		{
			OFFSET 0.043451 -0.386469 0.008037
			CHANNELS 3 Zrotation Yrotation Xrotation
			JOINT lankle
			{
				OFFSET -0.014790 -0.426874 -0.037428
				CHANNELS 3 Zrotation Yrotation Xrotation
				JOINT ltoe
				{
					OFFSET 0.041054 -0.060286 0.122042
					CHANNELS 3 Zrotation Yrotation Xrotation
					End Site
					{
						OFFSET 0.000000 0.000000 0.000000
					}
				}
			}
		}
	}
	JOINT rhip
	{
		OFFSET -0.060310 -0.090513 -0.013543
		CHANNELS 3 Zrotation Yrotation Xrotation
		JOINT rknee
		{
			OFFSET -0.043257 -0.383688 -0.004843
			CHANNELS 3 Zrotation Yrotation Xrotation
			JOINT rankle
			{
				OFFSET 0.019056 -0.420046 -0.034562
				CHANNELS 3 Zrotation Yrotation Xrotation
				JOINT rtoe
				{
					OFFSET -0.034840 -0.062106 0.130323
					CHANNELS 3 Zrotation Yrotation Xrotation
					End Site
					{
						OFFSET 0.000000 0.000000 0.000000
					}
				}
			}
		}
	}
	JOINT lowerback
	{
		OFFSET 0.004439 0.124404 -0.038385
		CHANNELS 3 Zrotation Yrotation Xrotation
		JOINT upperback
		{
			OFFSET 0.004488 0.137956 0.026820
			CHANNELS 3 Zrotation Yrotation Xrotation
			JOINT chest
			{
				OFFSET -0.002265 0.056032 0.002855
				CHANNELS 3 Zrotation Yrotation Xrotation
				JOINT lowerneck
				{
					OFFSET -0.013390 0.211636 -0.033468
					CHANNELS 3 Zrotation Yrotation Xrotation
					JOINT upperneck
					{
						OFFSET 0.010113 0.088937 0.050410
						CHANNELS 3 Zrotation Yrotation Xrotation
						End Site
						{
							OFFSET 0.000000 0.000000 0.000000
						}
					}
				}
				JOINT lclavicle
				{
					OFFSET 0.071702 0.114000 -0.018898
					CHANNELS 3 Zrotation Yrotation Xrotation
					JOINT lshoulder
					{
						OFFSET 0.122921 0.045205 -0.019046
						CHANNELS 3 Zrotation Yrotation Xrotation
						JOINT lelbow
						{
							OFFSET 0.255332 -0.015649 -0.022946
							CHANNELS 3 Zrotation Yrotation Xrotation
							JOINT lwrist
							{
								OFFSET 0.265709 0.012698 -0.007375
								CHANNELS 3 Zrotation Yrotation Xrotation
								End Site
								{
									OFFSET 0.000000 0.000000 0.000000
								}
							}
						}
					}
				}
				JOINT rclavicle
				{
					OFFSET -0.082954 0.112472 -0.023707
					CHANNELS 3 Zrotation Yrotation Xrotation
					JOINT rshoulder
					{
						OFFSET -0.113228 0.046853 -0.008472
						CHANNELS 3 Zrotation Yrotation Xrotation
						JOINT relbow
						{
							OFFSET -0.260127 -0.014369 -0.031269
							CHANNELS 3 Zrotation Yrotation Xrotation
							JOINT rwrist
							{
								OFFSET -0.269108 0.006794 -0.006027
								CHANNELS 3 Zrotation Yrotation Xrotation
								End Site
								{
									OFFSET 0.000000 0.000000 0.000000
								}
							}
						}
					}
				}
			}
		}
	}
}
MOTION
Frames: 7
Frame Time: 0.033333
0.346877 0.178277 0.989623 87.396442 0.036036 93.039130 7.380278 4.052365 3.408566 -3.699564 -1.720441 -5.407406 -0.767236 8.138874 -3.530792 0.000000 -0.000000 0.000000 -8.311739 -2.196228 -2.685799 2.830672 -1.235911 0.079204 5.062925 -4.017371 -5.073898 0.000000 -0.000000 0.000000 -4.355849 2.961360 -8.968752 2.038864 -1.027182 10.372080 -0.261491 0.073735 -4.272148 4.168657 2.395341 6.080596 5.281427 -3.820050 1.247677 -26.316207 -2.574029 0.323845 -55.508013 -7.902904 19.375813 0.710245 -17.365719 9.567127 -3.559113 -16.177226 8.088764 29.211550 3.252958 5.782370 54.095616 3.106377 15.673718 -8.232594 23.604690 -1.589992 -2.206247 10.428900 -2.139172 
0.347050 0.178046 0.989477 87.526836 -0.003722 92.880861 7.392963 4.006362 3.581575 -3.719187 -1.774969 -5.433259 -0.811558 8.080030 -3.539279 0.000000 -0.000000 0.000000 -8.327471 -2.294738 -2.439623 2.802504 -1.200288 0.021967 5.072311 -4.044617 -5.128875 0.000000 -0.000000 0.000000 -4.431452 2.862840 -8.718997 1.953566 -1.006058 10.029324 -0.155376 0.089206 -4.003804 4.200175 2.339675 5.728446 5.215632 -3.847987 1.683009 -26.156370 -2.637684 0.395624 -55.628033 -7.941535 19.173792 0.645599 -17.338552 9.759063 -3.470707 -16.138665 8.001755 29.070526 3.239155 5.856694 54.330558 3.199542 15.678698 -8.291798 23.510018 -1.515018 -1.906298 10.251039 -2.352348 
0.346997 0.177862 0.989395 87.585224 -0.040177 92.845743 7.366855 3.956386 3.630853 -3.714212 -1.792387 -5.486190 -0.815289 8.049169 -3.539976 0.000000 -0.000000 0.000000 -8.305316 -2.356216 -2.440089 2.690280 -1.171425 0.133846 5.184552 -4.045167 -5.168710 0.000000 -0.000000 0.000000 -4.516653 2.813997 -8.655958 1.928913 -0.997119 9.843662 -0.098133 0.111422 -3.835724 4.249051 2.266112 5.453679 5.124426 -3.906017 1.989148 -25.987581 -2.668367 0.341235 -55.824180 -7.985114 19.038115 0.506430 -17.094339 9.840836 -3.500965 -15.876658 7.997763 28.905728 3.198155 5.882086 54.569319 3.295918 15.694090 -8.462446 23.615886 -1.603305 -2.110428 10.338454 -2.242802 
0.346919 0.177695 0.989409 87.579546 -0.034794 92.816146 7.397801 3.974363 3.688024 -3.748768 -1.775920 -5.555236 -0.820787 8.033804 -3.499767 0.000000 -0.000000 0.000000 -8.339493 -2.367136 -2.362881 2.777946 -1.166898 0.031975 5.181943 -4.045052 -5.124573 0.000000 -0.000000 0.000000 -4.526505 2.825112 -8.687568 1.924113 -0.949243 9.886486 -0.085588 0.086087 -3.808146 4.312176 2.322754 5.302653 5.084791 -3.983910 2.103123 -25.967985 -2.663423 0.381255 -55.878512 -8.061452 18.949794 0.477149 -17.026100 9.905566 -3.598136 -15.873726 7.956008 28.823665 3.183103 5.897998 54.693068 3.377282 15.718681 -8.493581 23.574788 -1.559226 -2.105514 10.328691 -2.316332 
0.346901 0.177659 0.989414 87.588255 -0.041351 92.810467 7.388032 3.972900 3.710300 -3.738022 -1.803699 -5.589057 -0.814979 8.025049 -3.492173 0.000000 -0.000000 0.000000 -8.364918 -2.364151 -2.338740 2.817840 -1.160357 -0.002486 5.188564 -4.066088 -5.130053 0.000000 -0.000000 0.000000 -4.534284 2.822812 -8.684010 1.912456 -0.941106 9.865215 -0.085227 0.087116 -3.778185 4.327584 2.355815 5.252257 5.080679 -3.987508 2.105131 -25.947089 -2.649308 0.368178 -55.919840 -8.076030 18.940818 0.498120 -17.031608 9.934862 -3.610443 -15.870620 7.960291 28.810324 3.153298 5.875934 54.726339 3.392586 15.717838 -8.503103 23.569178 -1.527091 -2.099466 10.318011 -2.325557 
0.346843 0.177592 0.989410 87.605361 -0.030023 92.811243 7.407305 3.973319 3.722456 -3.739107 -1.784984 -5.622163 -0.801612 8.003105 -3.536807 0.000000 -0.000000 0.000000 -8.354512 -2.372775 -2.348984 2.828524 -1.149846 0.006577 5.213552 -4.064983 -5.129954 0.000000 -0.000000 0.000000 -4.517232 2.827610 -8.709413 1.906697 -0.937197 9.859874 -0.090519 0.081735 -3.734457 4.346503 2.412833 5.150477 5.049739 -3.959292 2.129317 -25.929749 -2.662508 0.379667 -55.978955 -8.093412 18.925750 0.504652 -17.069623 9.982454 -3.531097 -15.861400 7.919174 28.780687 3.120129 5.894667 54.767375 3.447842 15.699612 -8.503516 23.573913 -1.494746 -2.176041 10.276544 -2.348203 
0.346817 0.177583 0.989427 87.622788 -0.025529 92.788306 7.417334 3.975050 3.748139 -3.742797 -1.813717 -5.636333 -0.831255 8.000839 -3.522362 0.000000 -0.000000 0.000000 -8.334268 -2.362199 -2.337575 2.800925 -1.154421 0.039066 5.181523 -4.067507 -5.148233 0.000000 -0.000000 0.000000 -4.532742 2.834396 -8.703361 1.920989 -0.914644 9.878941 -0.071793 0.062396 -3.745332 4.327039 2.386240 5.180838 5.052558 -3.958853 2.066246 -25.945633 -2.672522 0.383157 -55.992636 -8.098586 18.942135 0.495949 -17.068649 9.960672 -3.520896 -15.876314 7.855732 28.749899 3.120622 5.862680 54.759620 3.415299 15.713873 -8.439481 23.500545 -1.456015 -2.034916 10.227137 -2.459856 
